<svg class="svg-icon" style="width: 1.01171875em; height: 1em;vertical-align: middle;fill: currentColor;overflow: hidden;" viewBox="0 0 1036 1024" version="1.1" xmlns="http://www.w3.org/2000/svg"><path d="M759.466667 904.533333H98.133333c-55.466667 0-98.133333-42.666667-98.133333-98.133333V366.933333c0-55.466667 42.666667-98.133333 98.133333-98.133333h827.733334c55.466667 0 98.133333 42.666667 98.133333 98.133333v298.666667c0 12.8-8.533333 21.333333-21.333333 21.333333s-21.333333-8.533333-21.333334-21.333333v-298.666667c0-29.866667-25.6-55.466667-55.466666-55.466666H98.133333c-29.866667 0-55.466667 25.6-55.466666 55.466666v439.466667c0 29.866667 25.6 55.466667 55.466666 55.466667h661.333334c12.8 0 21.333333 8.533333 21.333333 21.333333s-8.533333 21.333333-21.333333 21.333333z" fill="#7162AD" /><path d="M917.333333 900.266667H823.466667c-12.8 0-21.333333-8.533333-21.333334-21.333334s8.533333-21.333333 21.333334-21.333333h93.866666c34.133333 0 64-29.866667 64-64v-42.666667c0-12.8 8.533333-21.333333 21.333334-21.333333s21.333333 8.533333 21.333333 21.333333v42.666667c0 59.733333-46.933333 106.666667-106.666667 106.666667z" fill="#A495FC" /><path d="M861.866667 605.866667h-42.666667c-12.8 0-21.333333-8.533333-21.333333-21.333334s8.533333-21.333333 21.333333-21.333333h42.666667c12.8 0 21.333333 8.533333 21.333333 21.333333s-8.533333 21.333333-21.333333 21.333334z" fill="#7162AD" /><path d="M21.333333 413.866667c-12.8 0-21.333333-8.533333-21.333333-21.333334V251.733333c0-55.466667 42.666667-102.4 98.133333-102.4h742.4c55.466667 0 98.133333 42.666667 98.133334 98.133334v21.333333c0 12.8-8.533333 21.333333-21.333334 21.333333s-21.333333-8.533333-21.333333-21.333333v-21.333333c0-29.866667-25.6-55.466667-55.466667-55.466667H98.133333c-29.866667 0-55.466667 25.6-55.466666 59.733333v140.8c0 12.8-8.533333 21.333333-21.333334 21.333334z" fill="#7162AD" /><path d="M998.4 691.2h-213.333333c-38.4 0-64-25.6-64-64v-85.333333c0-38.4 25.6-64 64-64h213.333333c12.8 0 21.333333 8.533333 21.333333 21.333333s-8.533333 21.333333-21.333333 21.333333h-213.333333c-12.8 0-21.333333 8.533333-21.333334 21.333334v85.333333c0 12.8 8.533333 21.333333 21.333334 21.333333h213.333333c12.8 0 21.333333 8.533333 21.333333 21.333334s-8.533333 21.333333-21.333333 21.333333z" fill="#7162AD" /></svg>